
<svg width="200" height="39" viewBox="0 0 200 39" fill="none" xmlns="http://www.w3.org/2000/svg">
<g clip-path="url(#clip0_3_476)">
<path d="M9.96668 0.258238C15.2732 0.258238 19.2818 1.92475 19.2818 8.59362V9.49486C19.2818 11.5903 19.0393 12.4242 17.6741 12.4242H12.9171C11.8378 12.4242 11.1552 12.1972 11.1552 10.504V8.08764C11.1552 6.97616 10.9352 6.16743 9.8125 6.16743C8.60151 6.16743 8.40388 7.00139 8.40388 7.93486V9.39955C8.40388 12.2799 9.96668 13.5161 11.266 14.6023L14.4588 17.2794C18.2908 20.3363 19.5901 23.3414 19.5901 28.746C19.5901 34.6566 17.8507 38.1929 10.4516 38.1929C4.02104 38.1929 0.916476 35.6671 0.916476 29.5043V28.2722C0.916476 26.2259 1.15895 25.3933 2.5017 25.3933H7.32464C8.71224 25.3933 9.04162 26.0507 9.04162 27.5911V30.3887C9.04162 31.6263 9.26167 32.3089 10.4068 32.3089C11.486 32.3089 11.7061 31.6277 11.7061 30.491V28.4951C11.7061 26.1965 11.0459 25.2111 8.90987 23.4437L5.38621 20.4625C1.75184 17.4574 0.431519 14.9051 0.431519 10.3344C0.431519 3.54081 3.35948 0.256836 9.96668 0.256836" fill="white"/>
<path d="M21.2189 3.54199C21.2189 1.31903 21.9239 0.814453 24.479 0.814453H26.5268C28.6853 0.814453 29.8304 0.91537 29.8304 3.54199V29.1789C29.8304 31.0724 30.0939 31.6541 31.218 31.6541C32.3421 31.6541 32.649 31.0991 32.649 29.1789V3.54199C32.649 0.991057 33.134 0.814453 35.9961 0.814453H38.0004C40.599 0.814453 41.2591 1.32044 41.2591 3.54199V28.5467C41.2591 35.9725 38.0004 38.1954 31.2614 38.1954C24.5225 38.1954 21.2203 35.9725 21.2203 28.5467V3.54199H21.2189Z" fill="white"/>
<path d="M52.7536 22.3839C54.5155 22.3839 55.0214 21.1715 55.0214 17.6857V11.1191C55.0214 7.98651 54.4272 6.79934 52.7312 6.79934H52.1594V22.3839H52.7536ZM43.5493 3.542C43.5493 1.09198 44.4743 0.814459 46.9397 0.814459H53.4586C62.1781 0.713543 63.9847 4.5021 63.9623 14.5545C63.9623 24.5311 61.6945 27.8656 53.8104 27.8656H52.1579V34.6606C52.1579 36.756 51.673 37.7413 49.8677 37.7413H45.618C43.9894 37.7413 43.5479 36.7055 43.5479 34.4069V3.542H43.5493Z" fill="white"/>
<path d="M65.7031 3.54199C65.7031 1.64841 66.3198 0.814453 67.8392 0.814453H79.7753C80.5896 0.814453 81.2946 1.62318 81.2946 2.55806V7.73561C81.2946 8.69572 80.5896 9.47781 79.7753 9.47781H74.3146V15.0604H79.2917C80.1061 15.0604 80.8111 15.8187 80.8111 16.7522V21.4251C80.8111 22.36 80.1061 23.1688 79.2917 23.1688H74.3146V29.0794H79.7753C80.5896 29.0794 81.2946 29.8629 81.2946 30.8216V36.0496C81.2946 36.9844 80.5896 37.7413 79.7753 37.7413H67.8392C66.3198 37.7413 65.7031 36.9088 65.7031 35.0642V3.54199Z" fill="white"/>
<path d="M92.502 16.0192C93.912 16.0192 94.8357 14.9582 94.8357 12.4577V10.1086C94.8357 7.80995 93.9989 6.79938 92.4796 6.79938H91.9077V16.0192H92.502ZM83.2976 3.54204C83.2976 1.09202 84.2227 0.814505 86.6881 0.814505H93.1846C101.904 0.713589 103.711 4.42646 103.711 11.1206C103.711 16.2729 102.588 19.1013 99.6152 20.2885L103.336 32.8918C104.107 35.4679 103.425 37.7414 101.552 37.7414H97.6767C96.355 37.7414 95.7383 36.756 95.3865 35.0391L93.207 24.3798L92.9211 21.5009H91.9077V34.6606C91.9077 36.756 91.4227 37.7414 89.6175 37.7414H85.3888C83.7377 37.7414 83.2976 36.7056 83.2976 34.4069V3.54204Z" fill="white"/>
<path d="M138.644 3.54199C138.644 1.64841 139.261 0.814453 140.78 0.814453H152.715C153.53 0.814453 154.235 1.62318 154.235 2.55806V7.73561C154.235 8.69572 153.531 9.47781 152.715 9.47781H147.253V15.0604H152.23C153.046 15.0604 153.75 15.8187 153.75 16.7522V21.4251C153.75 22.36 153.046 23.1688 152.23 23.1688H147.253V29.0794H152.715C153.53 29.0794 154.235 29.8629 154.235 30.8216V36.0496C154.235 36.9844 153.531 37.7413 152.715 37.7413H140.78C139.261 37.7413 138.644 36.9088 138.644 35.0642V3.54199Z" fill="white"/>
<path d="M156.239 3.64284C156.239 1.11714 157.252 0.812988 159.695 0.812988H162.421C164.36 0.812988 165.328 1.49557 165.857 3.64284L168.747 14.3273L169.518 18.2168C169.539 18.3682 169.561 18.3934 169.627 18.3934H169.715C169.783 18.3934 169.783 18.3429 169.783 18.242L169.286 3.49147C169.155 1.09191 170.212 0.812988 172.59 0.812988H174.429C177.005 0.812988 177.688 1.47034 177.688 3.54052V34.4811C177.688 36.7293 177.116 37.7398 175.243 37.7398H171.267C169.682 37.7398 169.022 36.6536 168.382 34.3045L165.114 23.5191L164.343 20.1104C164.321 19.9828 164.3 19.959 164.232 19.959H164.166C164.101 19.959 164.078 20.0095 164.101 20.2617L164.588 34.6591C164.699 36.7545 164.103 37.7398 162.298 37.7398H158.309C156.679 37.7398 156.239 36.7041 156.239 34.4054V3.64144V3.64284Z" fill="white"/>
<path d="M179.515 7.73415V2.55659C179.515 1.62172 180.176 0.812988 180.991 0.812988H198.057C198.872 0.812988 199.533 1.62172 199.533 2.55659V7.73415C199.533 8.69425 198.873 9.47775 198.057 9.47775H193.808V35.1146C193.808 36.9073 193.236 37.7412 191.782 37.7412H187.29C185.816 37.7412 185.242 36.9073 185.242 35.1146V9.47775H180.993C180.178 9.47775 179.517 8.69425 179.517 7.73415" fill="white"/>
<path d="M106.489 4.17118C106.577 1.06381 107.942 0.811523 109.593 0.811523H114.125C116.614 0.811523 117.582 1.11427 117.979 3.61474L120.604 21.9016C120.648 22.1539 120.693 22.2562 120.803 22.2562H120.935C121.089 22.2562 121.134 22.1553 121.155 21.9016L123.714 3.61474C124.089 1.1395 125.057 0.811523 127.524 0.811523H132.055C133.708 0.811523 135.073 1.06381 135.16 4.17118L136.437 34.4067C136.525 36.7054 135.997 37.7412 134.367 37.7412H130.21C128.425 37.7412 127.897 36.7558 127.919 34.6604L128.024 15.8424C128.024 15.464 128.024 15.3631 127.87 15.3631H127.803C127.628 15.3631 127.628 15.464 127.583 15.8172L124.913 35.5449C124.648 37.4398 124.076 37.7426 122.027 37.7426H119.681C117.567 37.7426 117.039 37.4398 116.796 35.5449L114.126 15.7163C114.083 15.4135 114.038 15.3631 113.949 15.3631H113.861C113.75 15.3631 113.707 15.464 113.707 15.7919L113.767 34.6604C113.811 36.7572 113.282 37.7412 111.434 37.7412H107.342C105.712 37.7412 105.161 36.7054 105.25 34.4067L106.483 4.17118H106.489Z" fill="white"/>
</g>
<defs>
<clipPath id="clip0_3_476">
<rect width="199.037" height="38" fill="white" transform="translate(0.481689 0.149414)"/>
</clipPath>
</defs>
</svg>
