<svg width="200" height="39" viewBox="0 0 200 39" fill="none" xmlns="http://www.w3.org/2000/svg">
<path d="M9.4338 0.0488281C14.6839 0.0488281 18.6499 1.71809 18.6499 8.39796V9.30068C18.6499 11.3995 18.41 12.2349 17.0593 12.2349H12.3528C11.2851 12.2349 10.6097 12.0074 10.6097 10.3115V7.89114C10.6097 6.77783 10.392 5.96777 9.28127 5.96777C8.08315 5.96777 7.88762 6.8031 7.88762 7.73812V9.20522C7.88762 12.0903 9.43381 13.3285 10.7193 14.4166L13.8782 17.0981C17.6695 20.16 18.955 23.17 18.955 28.5836C18.955 34.5039 17.2341 38.046 9.91361 38.046C3.55137 38.046 0.479803 35.5161 0.479803 29.3431V28.109C0.479803 26.0593 0.719704 25.2254 2.04817 25.2254H6.81985C8.1927 25.2254 8.51857 25.8838 8.51857 27.4267V30.229C8.51857 31.4686 8.73629 32.1523 9.86923 32.1523C10.937 32.1523 11.1547 31.47 11.1547 30.3315V28.3323C11.1547 26.0298 10.5016 25.0429 8.38822 23.2725L4.90203 20.2864C1.30628 17.2778 0 14.7226 0 10.143C0 3.33822 2.89684 0.0488281 9.4338 0.0488281Z" fill="white"/>
<path d="M20.5663 3.33822C20.5663 1.1116 21.2639 0.606186 23.7918 0.606186H25.8178C27.9534 0.606186 29.0863 0.707268 29.0863 3.33822V29.0174C29.0863 30.9141 29.347 31.4967 30.4591 31.4967C31.5713 31.4967 31.875 30.9408 31.875 29.0174V3.33822C31.875 0.78308 32.3548 0.606186 35.1864 0.606186H37.1694C39.7404 0.606186 40.3936 1.113 40.3936 3.33822V28.3842C40.3936 35.8222 37.1694 38.0488 30.5021 38.0488C23.8348 38.0488 20.5677 35.8222 20.5677 28.3842V3.33822H20.5663Z" fill="white"/>
<path d="M51.766 22.2112C53.5091 22.2112 54.0097 20.9968 54.0097 17.5052V10.9278C54.0097 7.79006 53.4217 6.60094 51.7438 6.60094H51.178V22.2112H51.766ZM42.6594 3.33822C42.6594 0.884163 43.5747 0.606186 46.0139 0.606186H52.4635C61.0902 0.505103 62.8777 4.29991 62.8555 14.3688C62.8555 24.362 60.6118 27.7019 52.8116 27.7019H51.1766V34.5081C51.1766 36.607 50.6968 37.594 48.9107 37.594H44.7062C43.0949 37.594 42.6581 36.5565 42.6581 34.254V3.33822H42.6594Z" fill="white"/>
<path d="M64.5778 3.33822C64.5778 1.44152 65.188 0.606186 66.6912 0.606186H78.5004C79.3061 0.606186 80.0036 1.41625 80.0036 2.35267V7.53876C80.0036 8.50045 79.3061 9.28384 78.5004 9.28384H73.0978V14.8757H78.022C78.8277 14.8757 79.5252 15.6352 79.5252 16.5702V21.2509C79.5252 22.1873 78.8277 22.9974 78.022 22.9974H73.0978V28.9177H78.5004C79.3061 28.9177 80.0036 29.7025 80.0036 30.6628V35.8994C80.0036 36.8358 79.3061 37.594 78.5004 37.594H66.6912C65.188 37.594 64.5778 36.76 64.5778 34.9125V3.33822Z" fill="white"/>
<path d="M91.0918 15.8359C92.4868 15.8359 93.4006 14.7732 93.4006 12.2686V9.9156C93.4006 7.61317 92.5728 6.60094 91.0696 6.60094H90.5038V15.8359H91.0918ZM81.9852 3.33822C81.9852 0.884163 82.9004 0.606186 85.3397 0.606186H91.7671C100.394 0.505103 102.181 4.2241 102.181 10.9292C102.181 16.0901 101.071 18.9232 98.1293 20.1123L101.811 32.7364C102.574 35.3168 101.898 37.594 100.046 37.594H96.2115C94.9038 37.594 94.2937 36.607 93.9456 34.8872L91.7893 24.2104L91.5064 21.3267H90.5038V34.5081C90.5038 36.607 90.024 37.594 88.2379 37.594H84.0542C82.4206 37.594 81.9852 36.5565 81.9852 34.254V3.33822Z" fill="white"/>
<path d="M136.744 3.33822C136.744 1.44152 137.354 0.606186 138.857 0.606186H150.665C151.471 0.606186 152.168 1.41625 152.168 2.35267V7.53876C152.168 8.50045 151.472 9.28384 150.665 9.28384H145.261V14.8757H150.185C150.992 14.8757 151.688 15.6352 151.688 16.5702V21.2509C151.688 22.1873 150.992 22.9974 150.185 22.9974H145.261V28.9177H150.665C151.471 28.9177 152.168 29.7025 152.168 30.6628V35.8994C152.168 36.8358 151.472 37.594 150.665 37.594H138.857C137.354 37.594 136.744 36.76 136.744 34.9125V3.33822Z" fill="white"/>
<path d="M154.151 3.4393C154.151 0.909433 155.154 0.604782 157.571 0.604782H160.268C162.186 0.604782 163.144 1.28849 163.667 3.4393L166.526 14.1414L167.289 18.0373C167.31 18.1889 167.332 18.2142 167.397 18.2142H167.484C167.551 18.2142 167.551 18.1637 167.551 18.0626L167.06 3.28768C166.93 0.884162 167.975 0.604782 170.329 0.604782H172.148C174.697 0.604782 175.372 1.26322 175.372 3.33682V34.3284C175.372 36.5803 174.806 37.5926 172.954 37.5926H169.019C167.451 37.5926 166.798 36.5045 166.166 34.1515L162.932 23.3483L162.169 19.934C162.147 19.8062 162.126 19.7824 162.06 19.7824H161.994C161.929 19.7824 161.907 19.8329 161.929 20.0856L162.412 34.5067C162.521 36.6056 161.932 37.5926 160.146 37.5926H156.199C154.587 37.5926 154.151 36.555 154.151 34.2526V3.4393Z" fill="white"/>
<path d="M177.18 7.53736V2.35126C177.18 1.41485 177.833 0.604782 178.64 0.604782H195.525C196.331 0.604782 196.985 1.41485 196.985 2.35126V7.53736C196.985 8.49904 196.332 9.28384 195.525 9.28384H191.321V34.963C191.321 36.7586 190.755 37.594 189.317 37.594H184.872C183.414 37.594 182.846 36.7586 182.846 34.963V9.28384H178.642C177.836 9.28384 177.182 8.49904 177.182 7.53736" fill="white"/>
<path d="M104.93 3.96858C105.017 0.856084 106.368 0.603378 108.001 0.603378H112.485C114.947 0.603378 115.906 0.906625 116.298 3.41123L118.895 21.7282C118.938 21.9809 118.983 22.0834 119.092 22.0834H119.223C119.375 22.0834 119.42 21.9823 119.44 21.7282L121.972 3.41123C122.343 0.931896 123.301 0.603378 125.742 0.603378H130.225C131.86 0.603378 133.21 0.856084 133.296 3.96858L134.56 34.254C134.647 36.5565 134.124 37.594 132.511 37.594H128.398C126.633 37.594 126.11 36.607 126.133 34.5081L126.237 15.6591C126.237 15.28 126.237 15.1789 126.084 15.1789H126.017C125.844 15.1789 125.844 15.28 125.8 15.6338L123.158 35.394C122.896 37.2921 122.33 37.5954 120.303 37.5954H117.981C115.89 37.5954 115.368 37.2921 115.128 35.394L112.486 15.5327C112.443 15.2295 112.399 15.1789 112.311 15.1789H112.224C112.114 15.1789 112.071 15.28 112.071 15.6085L112.131 34.5081C112.174 36.6084 111.651 37.594 109.822 37.594H105.774C104.162 37.594 103.617 36.5565 103.704 34.254L104.924 3.96858H104.93Z" fill="white"/>
<path d="M196.897 32.0779C195.604 32.0779 194.553 33.1421 194.553 34.4506C194.553 35.759 195.604 36.8232 196.897 36.8232C198.189 36.8232 199.24 35.759 199.24 34.4506C199.24 33.1421 198.189 32.0779 196.897 32.0779ZM196.897 37.5926C195.185 37.5926 193.793 36.183 193.793 34.4506C193.793 32.7181 195.185 31.3086 196.897 31.3086C198.608 31.3086 200 32.7181 200 34.4506C200 36.183 198.608 37.5926 196.897 37.5926Z" fill="white"/>
<path d="M196.891 34.386C197.093 34.386 197.236 34.3509 197.324 34.2821C197.41 34.2119 197.453 34.101 197.453 33.9466C197.453 33.7837 197.411 33.67 197.325 33.604C197.239 33.538 197.098 33.5057 196.895 33.5057H196.483V34.386H196.891ZM196.903 32.8627C197.339 32.8627 197.665 32.9484 197.882 33.1182C198.099 33.2881 198.207 33.5647 198.207 33.948C198.207 34.4393 197.981 34.7552 197.527 34.8942L198.186 35.8362C198.215 35.8756 198.222 35.9121 198.206 35.9472C198.189 35.9823 198.158 36.0005 198.111 36.0005H197.602C197.526 36.0005 197.466 35.9668 197.422 35.898L196.816 35.0009H196.483V35.8713C196.483 35.957 196.44 36.0005 196.356 36.0005H195.865C195.78 36.0005 195.737 35.957 195.737 35.8713V32.9919C195.737 32.9063 195.78 32.8627 195.865 32.8627H196.905H196.903Z" fill="white"/>
</svg>
