
<svg width="100" height="65" viewBox="0 0 100 65" fill="none" xmlns="http://www.w3.org/2000/svg">
<path d="M7.85885 15.65C12.0589 15.65 15.1589 16.85 15.1589 21.85V21.95C15.1589 23.55 14.9589 24.15 13.8589 24.15H10.1589C9.35885 24.15 8.75885 23.95 8.75885 22.75V21.45C8.75885 20.65 8.55886 20.05 7.65885 20.05C6.75885 20.05 6.55885 20.65 6.55885 21.35V22.45C6.56951 23.2323 6.77655 23.9994 7.16095 24.6809C7.54536 25.3623 8.09481 25.9363 8.75885 26.35L11.2589 28.35C14.2589 30.65 15.2589 32.85 15.2589 36.85C15.2589 41.25 13.8589 43.85 8.05885 43.85C3.05885 43.85 0.558855 41.95 0.558855 37.35V37.25C0.558855 35.75 0.758855 35.15 1.75885 35.15H5.55885C6.65885 35.15 6.85885 35.65 6.85885 36.75V38.05C6.85885 38.95 7.05885 39.45 7.95885 39.45C8.85885 39.45 8.95885 38.95 8.95885 38.05V36.55C8.95885 34.85 8.45885 34.15 6.75885 32.75L3.95885 30.55C2.76798 29.7352 1.80977 28.6244 1.17855 27.3269C0.547316 26.0294 0.264819 24.5899 0.358855 23.15C0.358855 18.05 2.65885 15.65 7.85885 15.65Z" fill="#CDEBFF"/>
<path d="M16.8589 18.35C16.8589 16.75 17.4589 16.05 18.8589 16.05H22.7589C24.4589 16.05 24.8589 17.15 24.8589 18.75V40.85H29.3589C29.5494 40.8565 29.7367 40.9004 29.9101 40.9793C30.0836 41.0582 30.2398 41.1705 30.3698 41.3098C30.4999 41.4491 30.6011 41.6127 30.6679 41.7912C30.7347 41.9697 30.7656 42.1596 30.7589 42.35V46.95C30.7551 47.3297 30.6093 47.6943 30.3502 47.9719C30.0911 48.2495 29.7375 48.42 29.3589 48.45H18.7589C17.3589 48.45 16.7589 47.75 16.7589 46.15V18.35H16.8589Z" fill="#CDEBFF"/>
<path d="M32.5588 18.75C32.5588 16.85 33.1588 16.05 34.7588 16.05H47.2588C47.6947 16.0682 48.1062 16.2563 48.4052 16.574C48.7042 16.8917 48.8671 17.3138 48.8588 17.75V22.95C48.871 23.168 48.8388 23.3863 48.764 23.5914C48.6892 23.7966 48.5734 23.9844 48.4238 24.1435C48.2741 24.3025 48.0936 24.4294 47.8934 24.5165C47.6931 24.6036 47.4772 24.649 47.2588 24.65H41.5588V30.25H46.7588C47.1947 30.2682 47.6062 30.4563 47.9052 30.774C48.2042 31.0917 48.3671 31.5138 48.3588 31.95V36.65C48.3671 37.0862 48.2042 37.5083 47.9052 37.826C47.6062 38.1437 47.1947 38.3318 46.7588 38.35H41.5588V44.25H47.2588C47.6947 44.2682 48.1062 44.4563 48.4052 44.774C48.7042 45.0917 48.8671 45.5138 48.8588 45.95V51.15C48.8671 51.5862 48.7042 52.0083 48.4052 52.326C48.1062 52.6437 47.6947 52.8318 47.2588 52.85H34.7588C33.1588 52.85 32.5588 52.05 32.5588 50.15V18.75Z" fill="#CDEBFF"/>
<path d="M50.9589 19.05C50.9589 16.95 51.6589 16.05 53.4589 16.05H67.3589C67.8371 16.0976 68.2823 16.3158 68.6128 16.6647C68.9433 17.0136 69.1372 17.4699 69.1589 17.95V23.65C69.1696 23.894 69.1311 24.1376 69.0458 24.3664C68.9604 24.5952 68.8298 24.8045 68.6619 24.9818C68.4939 25.1591 68.292 25.3007 68.0681 25.3984C67.8443 25.496 67.6031 25.5476 67.3589 25.55H60.9589V31.75H66.7589C67.247 31.7708 67.7078 31.9807 68.0438 32.3353C68.3798 32.69 68.5645 33.1615 68.5589 33.65V38.85C68.5645 39.3385 68.3798 39.81 68.0438 40.1647C67.7078 40.5193 67.247 40.7292 66.7589 40.75H60.9589V47.25H67.3589C67.8371 47.2976 68.2823 47.5158 68.6128 47.8647C68.9433 48.2136 69.1372 48.6699 69.1589 49.15V54.95C69.1645 55.4385 68.9798 55.91 68.6438 56.2647C68.3078 56.6193 67.847 56.8292 67.3589 56.85H53.4589C51.6589 56.85 50.9589 55.95 50.9589 53.85V19.05Z" fill="#CDEBFF"/>
<path d="M71.4589 19.55C71.4589 16.35 72.7589 15.95 76.1589 15.95H85.1589C97.1589 15.85 99.6589 20.75 99.6589 33.85C99.6589 46.95 96.5589 51.25 85.6589 51.25H83.3589V60.15C83.3589 62.85 82.6589 64.15 80.1589 64.15H74.3589C72.1589 64.15 71.5589 62.75 71.5589 59.75V19.55H71.4589ZM84.1589 44.25C86.5589 44.25 87.2589 42.65 87.2589 38.15V29.55C87.2589 25.45 86.4589 23.95 84.0589 23.95H83.3589V44.35H84.1589V44.25Z" fill="#CDEBFF"/>
<path d="M4.15893 0.849998C6.15893 0.849998 7.65893 1.35 7.65893 3.55V3.65C7.65893 4.35 7.55893 4.65 7.05893 4.65H5.25893C4.85893 4.65 4.55893 4.55 4.55893 4.05V3.45C4.55893 3.05 4.45893 2.85 4.05893 2.85C3.65893 2.85 3.55893 3.15 3.55893 3.45V3.85C3.57441 4.20561 3.68452 4.55065 3.87789 4.84949C4.07126 5.14833 4.34089 5.39016 4.65893 5.55L5.85893 6.45C6.50057 6.841 7.0191 7.40483 7.35513 8.07689C7.69117 8.74896 7.83111 9.50208 7.75893 10.25C7.75893 12.15 7.05893 13.35 4.35893 13.35C1.95893 13.35 0.758927 12.55 0.758927 10.45C0.758927 9.75 0.858927 9.55 1.35893 9.55H3.15893C3.65893 9.55 3.75893 9.75 3.75893 10.25V10.85C3.75893 11.25 3.85893 11.45 4.25893 11.45C4.65893 11.45 4.75893 11.25 4.75893 10.85V10.15C4.75893 9.35 4.55893 9.05 3.65893 8.45L2.35893 7.45C1.76307 7.13532 1.26844 6.65844 0.932213 6.07447C0.595989 5.4905 0.431904 4.8233 0.458927 4.15C0.558927 1.95 1.65893 0.849998 4.15893 0.849998Z" fill="#CDEBFF"/>
<path d="M8.35889 1.95C8.35889 1.25 8.65889 1.05 9.55889 1.05H10.3589C11.1589 1.05 11.5589 1.05 11.5589 1.95V10.35C11.5589 10.95 11.6589 11.15 12.0589 11.15C12.4589 11.15 12.5589 10.95 12.5589 10.35V1.95C12.5589 1.15 12.7589 1.05 13.8589 1.05H14.6589C15.6589 1.05 15.8589 1.25 15.8589 1.95V10.15C15.8589 12.55 14.6589 13.35 12.0589 13.35C9.65889 13.35 8.35889 12.55 8.35889 10.15V1.95Z" fill="#CDEBFF"/>
<path d="M16.8589 1.95C16.8589 1.15 17.1589 1.05 18.1589 1.05H20.6589C23.9589 1.05 24.6589 2.25 24.6589 5.55C24.6589 8.85 23.7589 9.95 20.8589 9.95H20.2589V12.15C20.2589 12.85 20.0589 13.15 19.3589 13.15H17.7589C17.1589 13.15 16.9589 12.85 16.9589 12.05V1.95H16.8589ZM20.2589 8.15C20.9589 8.15 21.1589 7.75 21.1589 6.65V4.45C21.1589 3.45 20.9589 3.05 20.2589 3.05H20.0589V8.15H20.2589Z" fill="#CDEBFF"/>
<path d="M25.1589 1.95C25.1589 1.35 25.3589 1.05 25.9589 1.05H30.4589C30.6142 1.06155 30.7602 1.12847 30.8703 1.23859C30.9805 1.34871 31.0474 1.4947 31.0589 1.65V3.35C31.0474 3.5053 30.9805 3.65129 30.8703 3.76141C30.7602 3.87153 30.6142 3.93845 30.4589 3.95H28.3589V5.75H30.2589C30.3385 5.74721 30.4178 5.76081 30.4918 5.78998C30.5659 5.81914 30.6331 5.86324 30.6894 5.91952C30.7457 5.9758 30.7898 6.04307 30.819 6.11713C30.8481 6.19118 30.8617 6.27045 30.8589 6.35V7.85C30.8474 8.0053 30.7805 8.15129 30.6703 8.26141C30.5602 8.37153 30.4142 8.43845 30.2589 8.45H28.3589V10.35H30.4589C30.6142 10.3615 30.7602 10.4285 30.8703 10.5386C30.9805 10.6487 31.0474 10.7947 31.0589 10.95V12.65C31.0474 12.8053 30.9805 12.9513 30.8703 13.0614C30.7602 13.1715 30.6142 13.2384 30.4589 13.25H25.9589C25.3589 13.25 25.1589 12.95 25.1589 12.35V1.95Z" fill="#CDEBFF"/>
<path d="M31.7589 1.95C31.7589 1.15 32.0589 1.05 33.0589 1.05H35.4589C38.7589 1.05 39.4589 2.25 39.4589 4.45C39.4589 6.15 39.0589 7.05 37.9589 7.45L39.3589 11.55C39.6589 12.35 39.3589 13.15 38.6589 13.15H37.1589C36.6589 13.15 36.4589 12.85 36.2589 12.25L35.4589 8.75V7.85H35.0589V12.15C35.0589 12.85 34.8589 13.15 34.1589 13.15H32.5589C31.9589 13.15 31.7589 12.85 31.7589 12.05V1.95ZM35.2589 6.05C35.7589 6.05 36.1589 5.75 36.1589 4.85V4.05C36.1589 3.25 35.8589 2.95 35.2589 2.95H35.0589V5.95H35.2589V6.05Z" fill="#CDEBFF"/>
<path d="M42.6588 1.95C42.6588 1.15 43.0588 1.05 43.9588 1.05H45.0588C45.3502 1.00019 45.6494 1.06652 45.8925 1.23476C46.1355 1.403 46.3029 1.65977 46.3588 1.95L47.3588 5.45L47.6588 6.75L47.3588 1.95C47.3588 1.15 47.6588 1.05 48.5588 1.05H49.3588C50.3588 1.05 50.5588 1.25 50.5588 1.95V12.15C50.5588 12.85 50.3588 13.25 49.6588 13.25H48.0588C47.4588 13.25 47.2588 12.85 46.9588 12.15L45.8588 8.65L45.5588 7.55V7.65L45.8588 12.35C45.8588 13.05 45.6588 13.35 44.9588 13.35H43.3588C42.7588 13.35 42.5588 13.05 42.5588 12.25V1.95H42.6588Z" fill="#CDEBFF"/>
<path d="M52.6589 2.15C52.7589 1.15 53.3589 1.05 53.9589 1.05H56.9589C57.5589 1.05 58.1589 1.15 58.2589 2.15L59.4589 12.05C59.5589 12.85 59.3589 13.15 58.7589 13.15H56.7589C56.6921 13.1544 56.6251 13.1445 56.5624 13.121C56.4998 13.0974 56.4429 13.0607 56.3955 13.0134C56.3482 12.966 56.3115 12.9091 56.2879 12.8464C56.2644 12.7838 56.2545 12.7168 56.2589 12.65L56.1589 10.75H54.8589L54.6589 12.65C54.6633 12.7168 54.6534 12.7838 54.6298 12.8464C54.6063 12.9091 54.5696 12.966 54.5222 13.0134C54.4749 13.0607 54.418 13.0974 54.3553 13.121C54.2927 13.1445 54.2257 13.1544 54.1589 13.15H52.1589C51.5589 13.15 51.3589 12.85 51.4589 12.05L52.6589 2.15ZM55.9589 8.95L55.5589 4.15V3.45C55.5589 3.35 55.5589 3.35 55.4589 3.35C55.4324 3.35 55.4069 3.36053 55.3882 3.37929C55.3694 3.39804 55.3589 3.42348 55.3589 3.45V4.15L54.9589 8.95H55.9589Z" fill="#CDEBFF"/>
<path d="M58.9589 3.35V1.65C58.9561 1.57045 58.9697 1.49118 58.9988 1.41712C59.028 1.34306 59.0721 1.2758 59.1284 1.21952C59.1847 1.16324 59.2519 1.11914 59.326 1.08998C59.4 1.06081 59.4793 1.0472 59.5589 1.05H65.9589C66.1142 1.06155 66.2601 1.12847 66.3703 1.23859C66.4804 1.34871 66.5473 1.4947 66.5589 1.65V3.35C66.5616 3.42954 66.548 3.50881 66.5189 3.58287C66.4897 3.65693 66.4456 3.7242 66.3893 3.78048C66.3331 3.83676 66.2658 3.88085 66.1917 3.91002C66.1177 3.93918 66.0384 3.95279 65.9589 3.95H64.3589V12.35C64.3589 12.95 64.1589 13.25 63.5589 13.25H61.8589C61.2589 13.25 61.0589 12.95 61.0589 12.35V3.85H59.4589C59.3293 3.84071 59.2075 3.78505 59.1156 3.69322C59.0238 3.60139 58.9681 3.47954 58.9589 3.35Z" fill="#CDEBFF"/>
<path d="M67.1588 1.95C67.1588 1.25 67.4588 1.05 68.3588 1.05H69.1588C69.9588 1.05 70.3588 1.05 70.3588 1.95V10.35C70.3588 10.95 70.4588 11.15 70.8588 11.15C71.2588 11.15 71.3588 10.95 71.3588 10.35V1.95C71.3588 1.15 71.5588 1.05 72.6588 1.05H73.4588C74.4588 1.05 74.6588 1.25 74.6588 1.95V10.15C74.6588 12.55 73.4588 13.35 70.8588 13.35C68.2588 13.35 67.0588 12.65 67.0588 10.15V1.95H67.1588Z" fill="#CDEBFF"/>
<path d="M75.5588 1.95C75.5588 1.15 75.8588 1.05 76.8588 1.05H79.3588C82.6588 1.05 83.3588 2.25 83.3588 4.45C83.3588 6.15 82.9588 7.05 81.8588 7.45L83.2588 11.55C83.5588 12.35 83.2588 13.15 82.5588 13.15H81.0588C80.5588 13.15 80.3588 12.85 80.1588 12.25L79.3588 8.75L79.2588 7.85H78.8588V12.15C78.8588 12.85 78.6588 13.15 77.9588 13.15H76.3588C75.7588 13.15 75.5588 12.85 75.5588 12.05V1.95ZM79.0588 6.05C79.5588 6.05 79.9588 5.75 79.9588 4.85V4.05C79.9588 3.25 79.6588 2.95 79.0588 2.95H78.8588V5.95H79.0588V6.05Z" fill="#CDEBFF"/>
<path d="M84.9589 2.15C85.0589 1.15 85.6589 1.05 86.2589 1.05H89.2589C89.8589 1.05 90.4589 1.15 90.5589 2.15L91.7589 12.05C91.8589 12.85 91.6589 13.15 91.0589 13.15H89.0589C88.9921 13.1544 88.9251 13.1445 88.8625 13.121C88.7998 13.0974 88.7429 13.0607 88.6955 13.0134C88.6482 12.966 88.6115 12.9091 88.588 12.8464C88.5644 12.7838 88.5545 12.7168 88.5589 12.65L88.4589 10.75H87.1589L87.0589 12.65C87.0633 12.7168 87.0534 12.7838 87.0299 12.8464C87.0063 12.9091 86.9696 12.966 86.9223 13.0134C86.8749 13.0607 86.818 13.0974 86.7554 13.121C86.6927 13.1445 86.6257 13.1544 86.5589 13.15H84.5589C83.9589 13.15 83.7589 12.85 83.8589 12.05L84.9589 2.15ZM88.2589 8.95L87.8589 4.15V3.45C87.8589 3.42348 87.8484 3.39804 87.8296 3.37929C87.8109 3.36053 87.7854 3.35 87.7589 3.35C87.7324 3.35 87.707 3.36053 87.6882 3.37929C87.6694 3.39804 87.6589 3.42348 87.6589 3.45V4.15L87.2589 8.95H88.2589Z" fill="#CDEBFF"/>
<path d="M92.4589 1.95C92.4589 1.35 92.6589 1.05 93.2589 1.05H94.8589C95.5589 1.05 95.7589 1.45 95.7589 2.05V10.35H97.6589C97.8142 10.3615 97.9602 10.4285 98.0703 10.5386C98.1804 10.6487 98.2473 10.7947 98.2589 10.95V12.65C98.2473 12.8053 98.1804 12.9513 98.0703 13.0614C97.9602 13.1715 97.8142 13.2384 97.6589 13.25H93.3589C92.7589 13.25 92.5589 12.95 92.5589 12.35V1.95H92.4589Z" fill="#CDEBFF"/>
</svg>
