<svg width="200" height="39" viewBox="0 0 200 39" fill="none" xmlns="http://www.w3.org/2000/svg">
<g clip-path="url(#clip0_918_455)">
<path d="M9.96671 0.403746C15.2732 0.403746 19.2818 2.07026 19.2818 8.73913V9.64036C19.2818 11.7358 19.0393 12.5697 17.6742 12.5697H12.9171C11.8379 12.5697 11.1553 12.3427 11.1553 10.6495V8.23315C11.1553 7.12167 10.9352 6.31294 9.81253 6.31294C8.60154 6.31294 8.40391 7.1469 8.40391 8.08037V9.54506C8.40391 12.4254 9.96671 13.6616 11.266 14.7478L14.4589 17.4249C18.2909 20.4818 19.5902 23.4869 19.5902 28.8915C19.5902 34.8021 17.8508 38.3384 10.4517 38.3384C4.02108 38.3384 0.916506 35.8127 0.916506 29.6498V28.4178C0.916506 26.3714 1.15898 25.5388 2.50173 25.5388H7.32467C8.71227 25.5388 9.04165 26.1962 9.04165 27.7366V30.5342C9.04165 31.7718 9.2617 32.4544 10.4068 32.4544C11.4861 32.4544 11.7061 31.7732 11.7061 30.6365V28.6406C11.7061 26.342 11.046 25.3566 8.9099 23.5892L5.38625 20.608C1.75187 17.6029 0.431549 15.0506 0.431549 10.4799C0.431549 3.68632 3.35951 0.402344 9.96671 0.402344" fill="white"/>
<path d="M21.2188 3.6875C21.2188 1.46454 21.9238 0.959961 24.479 0.959961H26.5267C28.6852 0.959961 29.8303 1.06088 29.8303 3.6875V29.3244C29.8303 31.2179 30.0938 31.7996 31.2179 31.7996C32.342 31.7996 32.649 31.2446 32.649 29.3244V3.6875C32.649 1.13656 33.1339 0.959961 35.996 0.959961H38.0003C40.5989 0.959961 41.2591 1.46594 41.2591 3.6875V28.6922C41.2591 36.118 38.0003 38.3409 31.2614 38.3409C24.5224 38.3409 21.2202 36.118 21.2202 28.6922V3.6875H21.2188Z" fill="white"/>
<path d="M52.7537 22.5294C54.5155 22.5294 55.0215 21.317 55.0215 17.8312V11.2646C55.0215 8.13201 54.4272 6.94485 52.7313 6.94485H52.1594V22.5294H52.7537ZM43.5493 3.6875C43.5493 1.23749 44.4744 0.959966 46.9398 0.959966H53.4587C62.1781 0.85905 63.9848 4.64761 63.9624 14.7C63.9624 24.6766 61.6946 28.0111 53.8105 28.0111H52.158V34.8061C52.158 36.9015 51.6731 37.8868 49.8678 37.8868H45.6181C43.9894 37.8868 43.5479 36.851 43.5479 34.5524V3.6875H43.5493Z" fill="white"/>
<path d="M65.7032 3.6875C65.7032 1.79392 66.3199 0.959961 67.8392 0.959961H79.7754C80.5897 0.959961 81.2947 1.76869 81.2947 2.70357V7.88112C81.2947 8.84122 80.5897 9.62332 79.7754 9.62332H74.3147V15.2059H79.2918C80.1061 15.2059 80.8112 15.9642 80.8112 16.8977V21.5707C80.8112 22.5055 80.1061 23.3143 79.2918 23.3143H74.3147V29.2249H79.7754C80.5897 29.2249 81.2947 30.0084 81.2947 30.9671V36.1951C81.2947 37.13 80.5897 37.8868 79.7754 37.8868H67.8392C66.3199 37.8868 65.7032 37.0543 65.7032 35.2097V3.6875Z" fill="white"/>
<path d="M92.502 16.1647C93.912 16.1647 94.8357 15.1037 94.8357 12.6032V10.2541C94.8357 7.95546 93.9989 6.94489 92.4796 6.94489H91.9077V16.1647H92.502ZM83.2976 3.68755C83.2976 1.23753 84.2227 0.960012 86.6881 0.960012H93.1846C101.904 0.859096 103.711 4.57197 103.711 11.2661C103.711 16.4184 102.588 19.2468 99.6152 20.434L103.336 33.0373C104.107 35.6134 103.425 37.8869 101.552 37.8869H97.6767C96.355 37.8869 95.7383 36.9015 95.3865 35.1846L93.207 24.5253L92.9211 21.6464H91.9077V34.8061C91.9077 36.9015 91.4227 37.8869 89.6175 37.8869H85.3888C83.7377 37.8869 83.2976 36.8511 83.2976 34.5524V3.68755Z" fill="white"/>
<path d="M138.644 3.6875C138.644 1.79392 139.261 0.959961 140.78 0.959961H152.715C153.53 0.959961 154.235 1.76869 154.235 2.70357V7.88112C154.235 8.84122 153.531 9.62332 152.715 9.62332H147.253V15.2059H152.23C153.046 15.2059 153.75 15.9642 153.75 16.8977V21.5707C153.75 22.5055 153.046 23.3143 152.23 23.3143H147.253V29.2249H152.715C153.53 29.2249 154.235 30.0084 154.235 30.9671V36.1951C154.235 37.13 153.531 37.8868 152.715 37.8868H140.78C139.261 37.8868 138.644 37.0543 138.644 35.2097V3.6875Z" fill="white"/>
<path d="M156.239 3.78835C156.239 1.26264 157.252 0.958496 159.695 0.958496H162.421C164.36 0.958496 165.328 1.64108 165.857 3.78835L168.747 14.4728L169.518 18.3623C169.539 18.5137 169.561 18.5389 169.627 18.5389H169.715C169.783 18.5389 169.783 18.4884 169.783 18.3875L169.286 3.63698C169.155 1.23742 170.212 0.958496 172.59 0.958496H174.429C177.005 0.958496 177.688 1.61585 177.688 3.68603V34.6266C177.688 36.8748 177.116 37.8854 175.243 37.8854H171.267C169.682 37.8854 169.022 36.7991 168.382 34.45L165.114 23.6646L164.343 20.2559C164.321 20.1283 164.3 20.1045 164.232 20.1045H164.166C164.101 20.1045 164.078 20.155 164.101 20.4073L164.588 34.8046C164.699 36.9 164.103 37.8854 162.298 37.8854H158.309C156.679 37.8854 156.239 36.8496 156.239 34.5509V3.78695V3.78835Z" fill="white"/>
<path d="M179.515 7.87965V2.7021C179.515 1.76723 180.176 0.958496 180.991 0.958496H198.057C198.872 0.958496 199.533 1.76723 199.533 2.7021V7.87965C199.533 8.83976 198.873 9.62326 198.057 9.62326H193.808V35.2601C193.808 37.0528 193.236 37.8868 191.782 37.8868H187.29C185.816 37.8868 185.242 37.0528 185.242 35.2601V9.62326H180.993C180.178 9.62326 179.517 8.83976 179.517 7.87965" fill="white"/>
<path d="M106.489 4.31669C106.577 1.20932 107.942 0.957031 109.593 0.957031H114.125C116.614 0.957031 117.582 1.25978 117.979 3.76025L120.604 22.0471C120.648 22.2994 120.693 22.4017 120.803 22.4017H120.935C121.089 22.4017 121.134 22.3008 121.155 22.0471L123.714 3.76025C124.089 1.28501 125.057 0.957031 127.524 0.957031H132.055C133.708 0.957031 135.073 1.20932 135.16 4.31669L136.437 34.5523C136.525 36.8509 135.997 37.8867 134.367 37.8867H130.21C128.425 37.8867 127.897 36.9014 127.919 34.8059L128.024 15.9879C128.024 15.6095 128.024 15.5086 127.87 15.5086H127.803C127.628 15.5086 127.628 15.6095 127.583 15.9627L124.913 35.6904C124.648 37.5853 124.076 37.8881 122.027 37.8881H119.681C117.567 37.8881 117.039 37.5853 116.796 35.6904L114.126 15.8618C114.083 15.559 114.038 15.5086 113.949 15.5086H113.861C113.75 15.5086 113.707 15.6095 113.707 15.9375L113.767 34.8059C113.811 36.9028 113.282 37.8867 111.434 37.8867H107.342C105.712 37.8867 105.161 36.8509 105.25 34.5523L106.483 4.31669H106.489Z" fill="white"/>
</g>
<defs>
<clipPath id="clip0_918_455">
<rect width="199.037" height="38" fill="white" transform="translate(0.481697 0.294922)"/>
</clipPath>
</defs>
</svg>
