<svg width="100" height="63" viewBox="0 0 100 63" fill="none" xmlns="http://www.w3.org/2000/svg">
<path d="M7.51767 14.8C11.7177 14.8 14.8177 16 14.8177 21V21.1C14.8177 22.7 14.6177 23.3 13.5177 23.3H9.81767C9.01767 23.3 8.41767 23.1 8.41767 21.9V20.6C8.41767 19.8 8.21767 19.2 7.31767 19.2C6.41767 19.2 6.21767 19.8 6.21767 20.5V21.6C6.22832 22.3823 6.43536 23.1494 6.81977 23.8309C7.20417 24.5123 7.75362 25.0863 8.41767 25.5L10.9177 27.5C13.9177 29.8 14.9177 32 14.9177 36C14.9177 40.4 13.5177 43 7.71767 43C2.71767 43 0.217668 41.1 0.217668 36.5V36.4C0.217668 34.9 0.417668 34.3 1.41767 34.3H5.21767C6.31767 34.3 6.51767 34.8 6.51767 35.9V37.2C6.51767 38.1 6.71767 38.6 7.61767 38.6C8.51767 38.6 8.61767 38.1 8.61767 37.2V35.7C8.61767 34 8.11767 33.3 6.41767 31.9L3.61767 29.7C2.42679 28.8852 1.46859 27.7744 0.837359 26.4769C0.20613 25.1794 -0.076368 23.7399 0.017668 22.3C0.017668 17.2 2.31767 14.8 7.51767 14.8Z" fill="#FFFAF0"/>
<path d="M16.5177 17.5C16.5177 15.9 17.1177 15.2 18.5177 15.2H22.4177C24.1177 15.2 24.5177 16.3 24.5177 17.9V40H29.0177C29.2082 40.0065 29.3955 40.0504 29.569 40.1293C29.7424 40.2082 29.8986 40.3205 30.0286 40.4598C30.1587 40.5991 30.26 40.7627 30.3267 40.9412C30.3935 41.1197 30.4244 41.3096 30.4177 41.5V46.1C30.4139 46.4797 30.2681 46.8443 30.009 47.1219C29.7499 47.3995 29.3963 47.57 29.0177 47.6H18.4177C17.0177 47.6 16.4177 46.9 16.4177 45.3V17.5H16.5177Z" fill="#FFFAF0"/>
<path d="M32.2177 17.9C32.2177 16 32.8177 15.2 34.4177 15.2H46.9177C47.3536 15.2182 47.765 15.4063 48.064 15.724C48.3631 16.0417 48.5259 16.4638 48.5177 16.9V22.1C48.5299 22.318 48.4976 22.5363 48.4228 22.7415C48.348 22.9466 48.2322 23.1344 48.0826 23.2935C47.9329 23.4525 47.7524 23.5794 47.5522 23.6665C47.3519 23.7536 47.136 23.799 46.9177 23.8H41.2177V29.4H46.4177C46.8536 29.4182 47.265 29.6063 47.564 29.924C47.8631 30.2417 48.0259 30.6638 48.0177 31.1V35.8C48.0259 36.2362 47.8631 36.6583 47.564 36.976C47.265 37.2937 46.8536 37.4818 46.4177 37.5H41.2177V43.4H46.9177C47.3536 43.4182 47.765 43.6063 48.064 43.924C48.3631 44.2417 48.5259 44.6638 48.5177 45.1V50.3C48.5259 50.7362 48.3631 51.1583 48.064 51.476C47.765 51.7937 47.3536 51.9818 46.9177 52H34.4177C32.8177 52 32.2177 51.2 32.2177 49.3V17.9Z" fill="#FFFAF0"/>
<path d="M50.6177 18.2C50.6177 16.1 51.3177 15.2 53.1177 15.2H67.0177C67.4959 15.2476 67.9411 15.4658 68.2716 15.8147C68.6022 16.1636 68.796 16.6199 68.8177 17.1V22.8C68.8284 23.044 68.79 23.2876 68.7046 23.5164C68.6192 23.7452 68.4886 23.9545 68.3207 24.1318C68.1527 24.3091 67.9508 24.4507 67.7269 24.5484C67.5031 24.646 67.2619 24.6976 67.0177 24.7H60.6177V30.9H66.4177C66.9058 30.9208 67.3666 31.1307 67.7026 31.4853C68.0386 31.84 68.2233 32.3115 68.2177 32.8V38C68.2233 38.4885 68.0386 38.96 67.7026 39.3147C67.3666 39.6693 66.9058 39.8792 66.4177 39.9H60.6177V46.4H67.0177C67.4959 46.4476 67.9411 46.6658 68.2716 47.0147C68.6022 47.3636 68.796 47.8199 68.8177 48.3V54.1C68.8233 54.5885 68.6386 55.06 68.3026 55.4147C67.9666 55.7693 67.5058 55.9792 67.0177 56H53.1177C51.3177 56 50.6177 55.1 50.6177 53V18.2Z" fill="#FFFAF0"/>
<path d="M71.1177 18.7C71.1177 15.5 72.4177 15.1 75.8177 15.1H84.8177C96.8177 15 99.3177 19.9 99.3177 33C99.3177 46.1 96.2177 50.4 85.3177 50.4H83.0177V59.3C83.0177 62 82.3177 63.3 79.8177 63.3H74.0177C71.8177 63.3 71.2177 61.9 71.2177 58.9V18.7H71.1177ZM83.8177 43.4C86.2177 43.4 86.9177 41.8 86.9177 37.3V28.7C86.9177 24.6 86.1177 23.1 83.7177 23.1H83.0177V43.5H83.8177V43.4Z" fill="#FFFAF0"/>
<path d="M3.81774 0C5.81774 0 7.31774 0.5 7.31774 2.7V2.8C7.31774 3.5 7.21774 3.8 6.71774 3.8H4.91774C4.51774 3.8 4.21774 3.7 4.21774 3.2V2.6C4.21774 2.2 4.11774 2 3.71774 2C3.31774 2 3.21774 2.3 3.21774 2.6V3C3.23323 3.35561 3.34334 3.70065 3.53671 3.99949C3.73008 4.29834 3.9997 4.54016 4.31774 4.7L5.51774 5.6C6.15938 5.991 6.67792 6.55483 7.01395 7.2269C7.34998 7.89896 7.48992 8.65208 7.41774 9.4C7.41774 11.3 6.71774 12.5 4.01774 12.5C1.61774 12.5 0.417741 11.7 0.417741 9.6C0.417741 8.9 0.517741 8.7 1.01774 8.7H2.81774C3.31774 8.7 3.41774 8.9 3.41774 9.4V10C3.41774 10.4 3.51774 10.6 3.91774 10.6C4.31774 10.6 4.41774 10.4 4.41774 10V9.3C4.41774 8.5 4.21774 8.2 3.31774 7.6L2.01774 6.6C1.42188 6.28533 0.927251 5.80844 0.591027 5.22447C0.254803 4.6405 0.0907175 3.9733 0.117741 3.3C0.217741 1.1 1.31774 0 3.81774 0Z" fill="#FFFAF0"/>
<path d="M8.0177 1.1C8.0177 0.400001 8.3177 0.200001 9.2177 0.200001H10.0177C10.8177 0.200001 11.2177 0.200001 11.2177 1.1V9.5C11.2177 10.1 11.3177 10.3 11.7177 10.3C12.1177 10.3 12.2177 10.1 12.2177 9.5V1.1C12.2177 0.300001 12.4177 0.200001 13.5177 0.200001H14.3177C15.3177 0.200001 15.5177 0.400001 15.5177 1.1V9.3C15.5177 11.7 14.3177 12.5 11.7177 12.5C9.3177 12.5 8.0177 11.7 8.0177 9.3V1.1Z" fill="#FFFAF0"/>
<path d="M16.5177 1.1C16.5177 0.300001 16.8177 0.200001 17.8177 0.200001H20.3177C23.6177 0.200001 24.3177 1.4 24.3177 4.7C24.3177 8 23.4177 9.1 20.5177 9.1H19.9177V11.3C19.9177 12 19.7177 12.3 19.0177 12.3H17.4177C16.8177 12.3 16.6177 12 16.6177 11.2V1.1H16.5177ZM19.9177 7.3C20.6177 7.3 20.8177 6.9 20.8177 5.8V3.6C20.8177 2.6 20.6177 2.2 19.9177 2.2H19.7177V7.3H19.9177Z" fill="#FFFAF0"/>
<path d="M24.8177 1.1C24.8177 0.500001 25.0177 0.200001 25.6178 0.200001H30.1178C30.2731 0.211551 30.419 0.278474 30.5292 0.388591C30.6393 0.498708 30.7062 0.6447 30.7178 0.800001V2.5C30.7062 2.6553 30.6393 2.80129 30.5292 2.91141C30.419 3.02153 30.2731 3.08845 30.1178 3.1H28.0177V4.9H29.9177C29.9973 4.89721 30.0766 4.91082 30.1506 4.93998C30.2247 4.96914 30.2919 5.01324 30.3482 5.06952C30.4045 5.1258 30.4486 5.19307 30.4778 5.26713C30.5069 5.34119 30.5205 5.42046 30.5177 5.5V7C30.5062 7.1553 30.4393 7.30129 30.3292 7.41141C30.219 7.52153 30.073 7.58845 29.9177 7.6H28.0177V9.5H30.1178C30.2731 9.51155 30.419 9.57847 30.5292 9.68859C30.6393 9.79871 30.7062 9.9447 30.7178 10.1V11.8C30.7062 11.9553 30.6393 12.1013 30.5292 12.2114C30.419 12.3215 30.2731 12.3885 30.1178 12.4H25.6178C25.0177 12.4 24.8177 12.1 24.8177 11.5V1.1Z" fill="#FFFAF0"/>
<path d="M31.4177 1.1C31.4177 0.300001 31.7177 0.200001 32.7177 0.200001H35.1177C38.4177 0.200001 39.1177 1.4 39.1177 3.6C39.1177 5.3 38.7177 6.2 37.6177 6.6L39.0177 10.7C39.3177 11.5 39.0177 12.3 38.3177 12.3H36.8177C36.3177 12.3 36.1177 12 35.9177 11.4L35.1177 7.9V7H34.7177V11.3C34.7177 12 34.5177 12.3 33.8177 12.3H32.2177C31.6177 12.3 31.4177 12 31.4177 11.2V1.1ZM34.9177 5.2C35.4177 5.2 35.8177 4.9 35.8177 4V3.2C35.8177 2.4 35.5177 2.1 34.9177 2.1H34.7177V5.1H34.9177V5.2Z" fill="#FFFAF0"/>
<path d="M42.3176 1.1C42.3176 0.3 42.7176 0.2 43.6176 0.2H44.7177C45.009 0.150192 45.3083 0.216521 45.5513 0.384763C45.7943 0.553006 45.9617 0.809769 46.0177 1.1L47.0177 4.6L47.3176 5.9L47.0177 1.1C47.0177 0.3 47.3176 0.2 48.2177 0.2H49.0177C50.0177 0.2 50.2177 0.4 50.2177 1.1V11.3C50.2177 12 50.0177 12.4 49.3176 12.4H47.7177C47.1177 12.4 46.9176 12 46.6176 11.3L45.5177 7.8L45.2177 6.7V6.8L45.5177 11.5C45.5177 12.2 45.3176 12.5 44.6176 12.5H43.0177C42.4177 12.5 42.2177 12.2 42.2177 11.4V1.1H42.3176Z" fill="#FFFAF0"/>
<path d="M52.3177 1.3C52.4177 0.300001 53.0177 0.200001 53.6177 0.200001H56.6177C57.2177 0.200001 57.8177 0.300001 57.9177 1.3L59.1177 11.2C59.2177 12 59.0177 12.3 58.4177 12.3H56.4177C56.3509 12.3044 56.2839 12.2945 56.2212 12.271C56.1586 12.2474 56.1017 12.2107 56.0543 12.1634C56.007 12.116 55.9703 12.0591 55.9467 11.9964C55.9232 11.9338 55.9133 11.8668 55.9177 11.8L55.8177 9.9H54.5177L54.3177 11.8C54.3221 11.8668 54.3122 11.9338 54.2886 11.9964C54.2651 12.0591 54.2284 12.116 54.1811 12.1634C54.1337 12.2107 54.0768 12.2474 54.0141 12.271C53.9515 12.2945 53.8845 12.3044 53.8177 12.3H51.8177C51.2177 12.3 51.0177 12 51.1177 11.2L52.3177 1.3ZM55.6177 8.1L55.2177 3.3V2.6C55.2177 2.5 55.2177 2.5 55.1177 2.5C55.0912 2.5 55.0657 2.51054 55.047 2.52929C55.0282 2.54804 55.0177 2.57348 55.0177 2.6V3.3L54.6177 8.1H55.6177Z" fill="#FFFAF0"/>
<path d="M58.6177 2.5V0.8C58.6149 0.720454 58.6285 0.641185 58.6576 0.567125C58.6868 0.493066 58.7309 0.425802 58.7872 0.36952C58.8435 0.313238 58.9107 0.269143 58.9848 0.239979C59.0589 0.210815 59.1381 0.197206 59.2177 0.2H65.6177C65.773 0.21155 65.919 0.278473 66.0291 0.38859C66.1392 0.498707 66.2061 0.644699 66.2177 0.8V2.5C66.2205 2.57955 66.2069 2.65881 66.1777 2.73287C66.1485 2.80693 66.1044 2.8742 66.0481 2.93048C65.9919 2.98676 65.9246 3.03086 65.8505 3.06002C65.7765 3.08918 65.6972 3.10279 65.6177 3.1H64.0177V11.5C64.0177 12.1 63.8177 12.4 63.2177 12.4H61.5177C60.9177 12.4 60.7177 12.1 60.7177 11.5V3H59.1177C58.9881 2.99071 58.8663 2.93505 58.7744 2.84322C58.6826 2.75139 58.627 2.62954 58.6177 2.5Z" fill="#FFFAF0"/>
<path d="M66.8177 1.1C66.8177 0.400001 67.1177 0.200001 68.0177 0.200001H68.8177C69.6177 0.200001 70.0177 0.200001 70.0177 1.1V9.5C70.0177 10.1 70.1177 10.3 70.5177 10.3C70.9177 10.3 71.0177 10.1 71.0177 9.5V1.1C71.0177 0.300001 71.2177 0.200001 72.3177 0.200001H73.1177C74.1177 0.200001 74.3177 0.400001 74.3177 1.1V9.3C74.3177 11.7 73.1177 12.5 70.5177 12.5C67.9177 12.5 66.7177 11.8 66.7177 9.3V1.1H66.8177Z" fill="#FFFAF0"/>
<path d="M75.2177 1.1C75.2177 0.300001 75.5177 0.200001 76.5177 0.200001H79.0177C82.3177 0.200001 83.0177 1.4 83.0177 3.6C83.0177 5.3 82.6177 6.2 81.5177 6.6L82.9177 10.7C83.2177 11.5 82.9176 12.3 82.2177 12.3H80.7177C80.2177 12.3 80.0177 12 79.8177 11.4L79.0177 7.9L78.9177 7H78.5177V11.3C78.5177 12 78.3176 12.3 77.6177 12.3H76.0177C75.4177 12.3 75.2177 12 75.2177 11.2V1.1ZM78.7177 5.2C79.2177 5.2 79.6177 4.9 79.6177 4V3.2C79.6177 2.4 79.3176 2.1 78.7177 2.1H78.5177V5.1H78.7177V5.2Z" fill="#FFFAF0"/>
<path d="M84.6177 1.3C84.7177 0.300001 85.3177 0.200001 85.9177 0.200001H88.9177C89.5177 0.200001 90.1177 0.300001 90.2177 1.3L91.4177 11.2C91.5177 12 91.3177 12.3 90.7177 12.3H88.7177C88.6509 12.3044 88.5839 12.2945 88.5213 12.271C88.4586 12.2474 88.4017 12.2107 88.3544 12.1634C88.307 12.116 88.2703 12.0591 88.2468 11.9964C88.2232 11.9338 88.2133 11.8668 88.2177 11.8L88.1177 9.9H86.8177L86.7177 11.8C86.7221 11.8668 86.7122 11.9338 86.6887 11.9964C86.6651 12.0591 86.6284 12.116 86.5811 12.1634C86.5337 12.2107 86.4768 12.2474 86.4142 12.271C86.3515 12.2945 86.2845 12.3044 86.2177 12.3H84.2177C83.6177 12.3 83.4177 12 83.5177 11.2L84.6177 1.3ZM87.9177 8.1L87.5177 3.3V2.6C87.5177 2.57348 87.5072 2.54804 87.4884 2.52929C87.4697 2.51054 87.4442 2.5 87.4177 2.5C87.3912 2.5 87.3658 2.51054 87.347 2.52929C87.3283 2.54804 87.3177 2.57348 87.3177 2.6V3.3L86.9177 8.1H87.9177Z" fill="#FFFAF0"/>
<path d="M92.1177 1.1C92.1177 0.500001 92.3177 0.200001 92.9177 0.200001H94.5177C95.2177 0.200001 95.4177 0.600001 95.4177 1.2V9.5H97.3177C97.473 9.51155 97.619 9.57847 97.7291 9.68859C97.8392 9.79871 97.9061 9.9447 97.9177 10.1V11.8C97.9061 11.9553 97.8392 12.1013 97.7291 12.2114C97.619 12.3215 97.473 12.3885 97.3177 12.4H93.0177C92.4177 12.4 92.2177 12.1 92.2177 11.5V1.1H92.1177Z" fill="#FFFAF0"/>
</svg>
