<svg width="114" height="26" viewBox="0 0 114 26" fill="none" xmlns="http://www.w3.org/2000/svg">
<g clip-path="url(#clip0_284_255)">
<path fill-rule="evenodd" clip-rule="evenodd" d="M108.251 25.1012H5.74644C4.22227 25.1009 2.76065 24.4952 1.68302 23.4174C0.605387 22.3395 9.75662e-08 20.8777 1.3275e-07 19.3536V5.94152C-0.000162111 5.18668 0.148395 4.4392 0.437185 3.74179C0.725975 3.04438 1.14934 2.41069 1.68309 1.87694C2.21685 1.34319 2.85053 0.919823 3.54794 0.631033C4.24535 0.342243 4.99283 0.193686 5.74767 0.193848H108.252C109.007 0.193686 109.755 0.342234 110.452 0.631009C111.15 0.919784 111.784 1.34313 112.317 1.87686C112.851 2.4106 113.275 3.04427 113.564 3.74169C113.853 4.43912 114.001 5.18662 114.001 5.94152V19.3536C114.001 20.1085 113.852 20.8561 113.563 21.5535C113.274 22.2509 112.851 22.8846 112.317 23.4183C111.783 23.952 111.149 24.3753 110.451 24.6641C109.754 24.9529 109.006 25.1014 108.251 25.1012ZM113.042 5.94152C113.042 5.31241 112.918 4.68947 112.677 4.10825C112.436 3.52704 112.083 2.99893 111.639 2.55409C111.194 2.10925 110.666 1.75638 110.084 1.51563C109.503 1.27488 108.88 1.15097 108.251 1.15097H5.74644C4.47633 1.15162 3.25847 1.65663 2.3606 2.55496C1.46273 3.45329 0.958357 4.67141 0.958357 5.94152V19.3536C0.958357 20.6238 1.46294 21.842 2.36111 22.7401C3.25929 23.6383 4.47747 24.1429 5.74767 24.1429H108.252C109.523 24.1429 110.741 23.6383 111.639 22.7402C112.538 21.8421 113.043 20.6239 113.043 19.3536L113.042 5.94152Z" fill="#370F1E"/>
<path fill-rule="evenodd" clip-rule="evenodd" d="M58.1559 17.8554H56.8987L57.8669 15.467L55.9416 10.6048H57.2618L58.4721 13.9121L59.691 10.6048H61.0124L58.1559 17.8554ZM53.3555 15.7695C52.8862 15.7604 52.4336 15.5943 52.0698 15.2978V15.651H50.7793V8.39908H52.0698V10.9506C52.4348 10.6615 52.8839 10.499 53.3493 10.4875C54.7004 10.4875 55.6279 11.5755 55.6279 13.1279C55.6279 14.6803 54.7004 15.7695 53.3493 15.7695H53.3555ZM53.0776 11.5928C52.8878 11.5976 52.7009 11.6403 52.5279 11.7183C52.3548 11.7964 52.1991 11.9082 52.0698 12.0473V14.2048C52.1994 14.3433 52.3552 14.4546 52.5282 14.5322C52.7013 14.6098 52.888 14.6522 53.0776 14.6568C53.8038 14.6568 54.3126 14.0393 54.3126 13.1254C54.3126 12.2115 53.8038 11.5928 53.0776 11.5928ZM45.5589 15.2978C45.1989 15.597 44.7475 15.7643 44.2795 15.772C42.9383 15.772 42.0009 14.6827 42.0009 13.1304C42.0009 11.578 42.9383 10.4899 44.2795 10.4899C44.7453 10.4973 45.1954 10.6593 45.5589 10.9506V8.39908H46.8606V15.6485H45.5589V15.2978ZM45.5589 12.0522C45.4325 11.9113 45.2785 11.7978 45.1064 11.7188C44.9343 11.6398 44.7479 11.5969 44.5586 11.5928C43.8176 11.5928 43.3236 12.2189 43.3236 13.1254C43.3236 14.0319 43.8275 14.6568 44.5586 14.6568C44.7467 14.653 44.9321 14.611 45.1034 14.5333C45.2747 14.4556 45.4285 14.3438 45.5552 14.2048L45.5589 12.0522ZM37.8773 13.4836C37.9575 14.2493 38.5627 14.7729 39.4087 14.7729C39.8743 14.7729 40.3868 14.6025 40.9117 14.2987V15.3793C40.375 15.6316 39.7904 15.7656 39.1975 15.772C37.6747 15.772 36.604 14.6605 36.604 13.0908C36.604 11.5681 37.6525 10.4899 39.0937 10.4899C40.4152 10.4899 41.3167 11.5273 41.3167 13.0093C41.3194 13.1677 41.3128 13.326 41.297 13.4836H37.8773ZM39.0468 11.4866C38.4219 11.4866 37.9353 11.9509 37.8773 12.6462H40.0743C40.0348 11.9608 39.6223 11.4866 39.0468 11.4866ZM34.4773 12.2831V15.651H33.1855V10.6048H34.4761V11.1111C34.8392 10.7085 35.2825 10.4936 35.7111 10.4936C35.8539 10.4899 35.9966 10.5065 36.1347 10.543V11.6928C35.9871 11.652 35.8346 11.6316 35.6814 11.6323C35.4449 11.6438 35.214 11.708 35.0055 11.8202C34.7969 11.9324 34.6161 12.0897 34.4761 12.2807L34.4773 12.2831ZM28.7198 13.4836C28.8013 14.2493 29.4052 14.7729 30.2524 14.7729C30.7155 14.7729 31.2305 14.6025 31.7542 14.2987V15.3793C31.2175 15.6315 30.6329 15.7654 30.04 15.772C28.5185 15.772 27.4465 14.6605 27.4465 13.0908C27.4465 11.5681 28.4938 10.4899 29.9363 10.4899C31.2565 10.4899 32.1592 11.5273 32.1592 13.0093C32.1621 13.1677 32.155 13.3261 32.1382 13.4836H28.7198ZM29.8893 11.4866C29.2644 11.4866 28.7778 11.9509 28.7198 12.6462H30.9181C30.8761 11.9633 30.4624 11.4841 29.8881 11.4841L29.8893 11.4866ZM24.2083 15.651L23.1796 12.2239L22.1607 15.651H21.0023L19.2721 10.6048H20.5614L21.5803 14.0331L22.5991 10.6048H23.7674L24.7851 14.0331L25.799 10.6048H27.0896L25.3606 15.646L24.2083 15.651ZM16.3229 15.7745C14.8001 15.7745 13.722 14.6753 13.722 13.1328C13.722 11.5903 14.8076 10.4875 16.3266 10.4875C17.8456 10.4875 18.9201 11.5755 18.9201 13.1279C18.9201 14.6803 17.8493 15.7695 16.3266 15.7695L16.3229 15.7745ZM16.3229 11.5755C15.5671 11.5755 15.0434 12.2103 15.0434 13.1378C15.0434 14.0652 15.5671 14.7 16.3229 14.7C17.0787 14.7 17.5937 14.0652 17.5937 13.1378C17.5937 12.2103 17.0725 11.5656 16.3266 11.5656L16.3229 11.5755ZM10.6604 13.1575H9.49707V15.6485H8.21021V8.71154H10.6604C12.072 8.71154 13.0798 9.62914 13.0798 10.9345C13.0798 12.2399 12.072 13.1575 10.6604 13.1575ZM10.4851 9.76128H9.49707V12.1078H10.4851C11.2261 12.1078 11.7559 11.6335 11.7559 10.937C11.7559 10.2405 11.2261 9.76128 10.4851 9.76128ZM106.444 13.654H101.121C101.245 14.9285 102.177 15.3052 103.237 15.3052C104.163 15.3225 105.08 15.1158 105.909 14.7025V16.8934C105.168 17.3034 104.194 17.5986 102.895 17.5986C100.245 17.5986 98.3884 15.94 98.3884 12.6586C98.3884 9.88849 99.963 7.68896 102.55 7.68896C105.138 7.68896 106.483 9.88725 106.483 12.6722C106.483 12.9377 106.459 13.507 106.444 13.654ZM102.533 9.90701C101.854 9.90701 101.098 10.4208 101.098 11.6459H103.91C103.91 10.422 103.201 9.90701 102.533 9.90701ZM93.9856 17.5986C93.0334 17.5986 92.4517 17.1972 92.0602 16.9107V19.9895L89.3433 20.5675V7.87051H91.7379L91.8713 8.54234C92.4432 7.99154 93.2076 7.68578 94.0017 7.6902C95.9122 7.6902 97.7066 9.41054 97.7066 12.5771C97.7066 16.0351 95.927 17.5986 93.9819 17.5986H93.9856ZM93.3533 10.0984C92.7296 10.0984 92.3381 10.3269 92.0541 10.6381L92.0689 14.6803C92.3332 14.9668 92.7136 15.1965 93.3508 15.1965C94.3573 15.1965 95.0316 14.1011 95.0316 12.6364C95.0316 11.2136 94.3413 10.0984 93.3533 10.0984ZM85.4049 7.87545H88.1354V17.4096H85.4024L85.4049 7.87545ZM85.4049 4.83118L88.1354 4.25073V6.46138L85.4049 7.04182V4.83118ZM82.4915 10.9407V17.4047H79.7683V7.87051H82.1148L82.2852 8.67449C82.9225 7.50371 84.1933 7.74083 84.5552 7.87174V10.3714C84.2094 10.2602 83.1238 10.0972 82.4816 10.9407H82.4915ZM76.6611 14.0628C76.6611 15.6683 78.3777 15.1656 78.726 15.0273V17.2417C78.3641 17.4405 77.7059 17.601 76.8179 17.601C75.2025 17.601 73.991 16.413 73.991 14.8025L74.0034 6.07606L76.6598 5.51043V7.87051H78.7248V10.1898H76.6611V14.0628ZM73.271 14.5259C73.271 16.4846 71.7125 17.601 69.4499 17.601C68.4271 17.5987 67.4153 17.3886 66.4761 16.9835V14.39C67.3887 14.884 68.5521 15.2545 69.4536 15.2545C70.06 15.2545 70.496 15.0928 70.496 14.5889C70.496 13.2909 66.3625 13.78 66.3625 10.769C66.3625 8.84368 67.8321 7.69143 70.039 7.69143C70.9635 7.68072 71.8815 7.84845 72.7424 8.18543V10.7493C71.9069 10.3093 70.9806 10.0696 70.0366 10.049C69.4672 10.049 69.1128 10.2133 69.1128 10.6381C69.1128 11.862 73.271 11.2803 73.271 14.5234V14.5259Z" fill="#370F1E"/>
</g>
<defs>
<clipPath id="clip0_284_255">
<rect width="114" height="24.9074" fill="white" transform="translate(0 0.193848)"/>
</clipPath>
</defs>
</svg>
